<?xml version="1.0" encoding="utf-8"?>
<!-- Generator: Adobe Illustrator 16.0.0, SVG Export Plug-In . SVG Version: 6.00 Build 0)  -->
<!DOCTYPE svg PUBLIC "-//W3C//DTD SVG 1.1//EN" "http://www.w3.org/Graphics/SVG/1.1/DTD/svg11.dtd">
<svg version="1.1" id="圖層_1" xmlns="http://www.w3.org/2000/svg" xmlns:xlink="http://www.w3.org/1999/xlink" x="0px" y="0px"
	 width="2208px" height="200px" viewBox="0 0 2208 200" enable-background="new 0 0 2208 200" xml:space="preserve">
<g>
	<g>
		<g>
			<path fill="#D61718" d="M38.022,129.775c3.455,18.812,20.596,45.709,33.283,41.057c7.449-2.73,7.449,5.463,17.469,5.146
				c5.941-0.188,6.792-1.699,10.189-3.822c15.743,11.904,43.88-16.656,56.935-45.068c24.627-53.602-30.051-75.286-54.459-60.641
				c-5.375-8.832-33.086-18.442-54.203-1.945c0,0,8.563,29.297-5.318,46.543C43.601,121.98,38.022,129.775,38.022,129.775"/>
			<path fill="#FFFFFF" d="M51.239,67.189c26.493,8.063,21.471,50.533-8.447,59.898c2.687-4.99,3.19-9.678,2.304-14.975
				C53.543,103.283,55.463,80.628,51.239,67.189"/>
			<path fill="#6DB044" d="M116.391,57.422c11.339,0.781,22.018,2.77,22.018,2.77l22.263,5.766c0,0-5.075-8.42-14.703-13.746
				C136.411,46.92,118.136,55.497,116.391,57.422"/>
			<path fill="#6DB044" d="M38.59,41.9c24.189,5.375,50.675,11.533,50.675,11.533l25.734-2.175c0,0-14.961-17.167-31.044-23.794
				C73.723,23.249,51.261,31.148,38.59,41.9"/>
			<polygon fill="#6DB044" points="119.455,20.824 129.694,30.006 104.273,82.615 100.741,81.203 			"/>
			<polygon fill="#FFFFFF" points="90.4,74.945 105.4,85.346 113.821,76.48 104.977,80.683 			"/>
			<path fill-rule="evenodd" clip-rule="evenodd" fill="#FFFFFF" d="M232.619,165.615h5.876l0.703,2.322h8.207l-7.6-18.662h-8.558
				l-7.378,18.662h8.177L232.619,165.615z M234.058,161.195l1.053-3.609c0.127-0.447,0.192-0.924,0.35-2.098h0.287
				c0.097,0.895,0.131,1.006,0.415,2.098l0.991,3.609H234.058z"/>
			<path fill-rule="evenodd" clip-rule="evenodd" fill="#FFFFFF" d="M258.478,167.938h7.536v-5.623h4.279
				c4.087,0,6.799-2.518,6.799-6.322c0-1.203-0.411-2.521-1.084-3.553c-1.371-2.016-3.991-3.164-7.313-3.164h-10.217V167.938z
				 M266.014,157.615v-3.219h1.437c1.31,0,2.108,0.588,2.108,1.539c0,1.035-0.864,1.68-2.204,1.68H266.014z"/>
			<path fill-rule="evenodd" clip-rule="evenodd" fill="#FFFFFF" d="M288.164,167.938h7.539v-5.623h4.276
				c4.09,0,6.805-2.518,6.805-6.322c0-1.203-0.418-2.521-1.087-3.553c-1.371-2.016-3.991-3.164-7.313-3.164h-10.22V167.938z
				 M295.703,157.615v-3.219h1.434c1.309,0,2.108,0.588,2.108,1.539c0,1.035-0.861,1.68-2.201,1.68H295.703z"/>
			<polygon fill-rule="evenodd" clip-rule="evenodd" fill="#FFFFFF" points="317.856,167.938 332.129,167.938 332.129,161.922 
				325.618,161.922 325.618,149.275 317.856,149.275 			"/>
			<polygon fill-rule="evenodd" clip-rule="evenodd" fill="#FFFFFF" points="343.202,167.938 357.797,167.938 357.797,162.818 
				350.964,162.818 350.964,161.029 356.964,161.029 356.964,156.129 350.964,156.129 350.964,154.396 357.574,154.396 
				357.574,149.275 343.202,149.275 			"/>
			<polygon fill-rule="evenodd" clip-rule="evenodd" fill="#FFFFFF" points="540.016,167.938 554.61,167.938 554.61,162.818 
				547.777,162.818 547.777,161.029 553.778,161.029 553.778,156.129 547.777,156.129 547.777,154.396 554.388,154.396 
				554.388,149.275 540.016,149.275 			"/>
			<polygon fill-rule="evenodd" clip-rule="evenodd" fill="#FFFFFF" points="463.115,167.938 477.387,167.938 477.387,161.922 
				470.877,161.922 470.877,149.275 463.115,149.275 			"/>
			<rect x="488.769" y="149.275" fill-rule="evenodd" clip-rule="evenodd" fill="#FFFFFF" width="7.763" height="18.662"/>
			<path fill="#FFFFFF" d="M431.01,167.924v-18.66h9.152c1.639,3.393,3.276,6.812,4.474,9.436h0.182
				c-0.13-1.562-0.157-4.506-0.157-7.605v-1.83h7.074v18.66h-8.738c-1.273-2.625-3.796-8.43-4.965-10.973h-0.156
				c0.207,1.855,0.234,4.002,0.234,8.295v2.678H431.01z"/>
			<path fill="#FFFFFF" d="M507.911,167.936v-18.672h9.151c1.64,3.396,3.277,6.816,4.474,9.443h0.183
				c-0.131-1.564-0.157-4.51-0.157-7.613v-1.83h7.074v18.672h-8.738c-1.273-2.625-3.796-8.434-4.966-10.979h-0.155
				c0.207,1.855,0.233,4.002,0.233,8.301v2.678H507.911z"/>
			<path fill-rule="evenodd" clip-rule="evenodd" fill="#FFFFFF" d="M408.475,148.787c-8.296,0-11.44,4.67-11.44,9.846
				c0,5.547,3.9,9.795,11.102,9.795c7.983,0,11.494-4.326,11.494-9.82C419.63,152.9,415.261,148.787,408.475,148.787
				 M408.282,161.105c-1.832,0-2.824-1.08-2.824-2.492c0-1.316,0.801-2.504,2.91-2.504c1.726,0,2.837,1.047,2.837,2.498
				C411.205,160.004,410.312,161.105,408.282,161.105"/>
			<path fill-rule="evenodd" clip-rule="evenodd" fill="#FFFFFF" d="M197.837,108.852l-6.583-5.463c0,0-5.527,11.412-7.497,15.422
				c-0.033,0.066,6.728,5.785,6.732,5.777C194.681,116.727,197.837,108.852,197.837,108.852"/>
			<path fill-rule="evenodd" clip-rule="evenodd" fill="#FFFFFF" d="M256.733,76.906l-1.576-0.67l-0.841,1.758l-16.098,0.004v-3.569
				l15.737-0.003l2.866-10.439l-1.664-0.709l-0.841,1.795L238.21,65.07l-0.011-2.262l0.965-0.303l0.302-1.174l-11.58,0.017
				l0.012,3.722h-12.94v-2.299l0.982-0.211l0.283-1.212h-11.596l-0.01,3.722l-18.73,0.002l-1.688,9.354l20.456,0.003l-0.008,2.821
				l-4.345-0.01l-0.021,16.304l-2.652-0.019l-0.004-10.976l1.026-0.379l0.302-1.175L187.836,81l0.008,12.539h-2.429l-2.111,8.939
				h14.609v17.045l-12.998,10.621l6.147,8.67c0,0,15.688-9.207,28.051-28.953l1.429,0.186l0.142-1.416v-0.566l-9.079-4.295
				l-3.759,7.062v-8.352h9.374l2.301-8.976l-9.032-0.002l0.019-3.05l5.488,0.006l2.041-7.953h-7.587v-3.668h4.605l-0.088-4.409
				h12.931v3.569l-7.209,0.006l-2.343,9.348h14.5l-1.085,3.111l-11.077,0.087v17.515l0.054,0.025l-0.054,0.541v15.137l4.627,0.002
				l-11.79,7.748l7,6.613c0,0,4.198-2.67,7.361-4.879c3.256-2.275,7.235-5.461,7.235-5.461l-2.75-4.021h9.204l-3.774,4.555
				c0,0,2.602,2.162,6.234,5.105c3.965,3.213,5.574,4.17,5.574,4.17l7.028-7.373l-9.16-6.457l6.375-0.002l0.014-27.424l2.522-2.214
				l-6.83-6.781h-0.192l-2.547,3.119l-4.382-0.005l0.983-3.114h5.946l0.086-0.104l0.106,0.104h4.65L256.733,76.906z M243.565,116.65
				h-12.54v-2.576h12.54V116.65z M243.565,108.088h-12.54v-2.576h12.54V108.088z M243.565,99.525h-12.54v-2.578h12.54V99.525z"/>
			<path fill-rule="evenodd" clip-rule="evenodd" fill="#FFFFFF" d="M310.411,113.986l21.657-0.002l3.129-12.235l-3.144-1.073
				l-1.342,2.189l-27.509,0.039l0.01-3.094l23.712-0.002l-0.002-27.406l3.708-5.219l-12.07-5.852l-2.291,3.205l-51.34,0.041v35.23
				l25.194,0.002l-0.04,3.094l-28.726,0.002l-1.337,11.078l22.225,0.002c0,0-15.273,11.117-22.328,15.441
				c-0.001,0,6.837,8.719,6.894,8.682c11.284-7.129,23.285-17.408,23.285-17.408l0.01,18.113h13.097l0.01-17.951
				c0,0,10.062,9.75,23.354,15.934c0.003,0,6.841-9.316,8.861-10.076C323.867,122.271,310.411,113.986,310.411,113.986
				 M302.991,74.556h11.75v2.826h-11.75V74.556z M290.146,77.354h-10.043l-2.812,9.885h12.855v2.781h-13.239V74.572h13.239V77.354z
				 M302.961,87.236h11.802v2.813h-11.802V87.236z"/>
			<path fill="#FFFFFF" d="M392.045,87.753V77.592c5.452-0.437,12.692-1.312,21.715-2.623l-3.777-11.474
				c-8.395,1.532-18.361,2.623-29.896,3.278v31.469c0.207,12.021-0.424,20.324-1.889,24.912c-0.631-0.654-1.889-1.965-3.776-3.932
				c-2.517-2.838-4.301-4.59-5.349-5.244l-3.743,3.062v-4.703h10.421l1.361-8.611l0.413-2.613l-1.333-0.709l-0.858,1.771H365.33
				v-4.262h10.421l1.606-10.488h-0.002l0.163-1.07l-1.333-0.709l-0.861,1.777l0.003,0.002h-4.145l1.866-8.852h2.6l1.595-10.42
				l0.176-1.139l-1.333-0.707l-0.861,1.775h-9.9v-5.333l0.761-0.22l0.312-1.188h-1.073v-0.013H352.25v6.753h-10.838l-1.605,10.49
				h4.446l1.873,8.852h-4.76l-1.605,10.488h12.489v4.262h-10.884l-1.605,10.162h10.464c-5.383,5.9-9.582,10.604-14.194,14.096
				c2.307,3.064,4.298,6.115,5.979,9.18c4.787-4.223,8.2-8.188,10.24-11.902v15.277h0.774h11.644h0.662v-15.396
				c0.521,0.639,1.134,1.469,1.855,2.514c1.888,2.188,3.146,3.607,3.775,4.262l6.606-5.572c-0.84,2.844-1.995,5.572-3.46,8.195
				c3.564,2.402,7.027,4.805,10.384,7.211c3.149-6.34,5.139-12.129,5.979-17.375c1.048-5.459,1.575-13.217,1.575-23.271V87.753z
				 M361.157,87.426h-5.151l-1.549-8.852h8.208L361.157,87.426z"/>
			<path fill="#FFFFFF" d="M462.326,64.459h-36.293v74.531h13.109V91.468h23.184V64.459z M450.157,75.197h-9.043l-1.612,5.856
				h10.655v2.929h-11.015v-1.621v-1.308v-5.856V74.89v-2.622h11.015V75.197z"/>
			<path fill="#FFFFFF" d="M492.938,61.332l-2.254,3.127h-26.262v27.009h23.498v36.458c0,1.303-0.944,1.953-2.833,1.953
				c-0.671,0-1.188-0.004-1.575-0.006l1.938-7.83l-1.565-0.742l-0.964,1.775h-1.747v-21.283h2.216l1.41-5.725l0.65-2.602
				l-1.565-0.744l-0.963,1.775h-40.159l-1.796,7.295h3.436v21.248l0.13,0.035h-1.77l-1.796,7.293h28.841v6.568h11.366v-5.65v-0.918
				h1.741c0.444,1.758,1.938,7.695,2.119,8.621c1.048,0,6.486-0.326,7.116-0.326c6.294-0.219,9.229-3.578,8.812-10.088V71.427
				l3.208-4.649L492.938,61.332z M468.975,122.09h-12.399v-2.854h12.399V122.09z M468.975,113.527h-12.399v-2.854h12.399V113.527z
				 M468.975,104.646h-12.399v-2.854h12.399V104.646z M487.921,75.197h-9.357l-1.597,5.856h10.954v2.929h-11.329v-2.929v-8.786
				h11.329V75.197z"/>
			<path fill="#FFFFFF" d="M583.689,71.473l2.5-4.289l-12.071-5.853l-2.258,3.134h-38.984v13.151l-3.515-2.219l-3.151-2.052
				c0,0-1.403,3.703-4.292,9.258c-0.833,0.141-1.699,0.273-2.595,0.396c2.927-4.437,6.887-15.323,6.887-15.323l-0.863-0.283
				c0.009-0.025,0.019-0.047,0.028-0.073l-9.115-2.813c-1.823,7.869-4.28,14.385-7.368,19.543c-0.912,0.053-1.899,0.105-2.962,0.157
				l1.215,8.363c3.436-0.286,6.67-0.664,9.723-1.127c-1.927,3.085-4.161,6.366-6.71,9.682l-4.228,0.242l0.888,4.954l1.011,5.949
				c6.582-1.146,13.217-2.58,19.901-4.299c0.253,1.355,0.481,2.789,0.684,4.299l4.463-1.598v4.508l-1.325-2.91
				c-0.902,0.541-2.537,1.088-3.493,1.383l-3.677,0.885c1.468,4.377,2.71,9.883,3.672,16.137l4.823-1.771v10.086h13.08V74.911
				h24.684v50.274c0.207,2.396-0.944,3.59-3.462,3.59h-8.497c1.048,3.045,1.889,6.416,2.518,10.121
				c3.982,0,10.634-0.113,13.363-0.328c6.293,0,9.333-3.482,9.128-10.445V71.473z M532.876,97.963l-1.078-4.156l-5.588,1.52
				l-1.367,0.371c0.406,1.395,0.813,2.912,1.222,4.514l-5.572,0.319c4.456-5.749,8.584-12.213,12.384-19.392V97.963z"/>
			<path fill="#FFFFFF" d="M568.411,118.539L568.411,118.539l0.412-2.592l-1.141-0.754l-0.755,1.752h-4.89
				c-1.71,0.211-2.562-0.949-2.562-3.479v-3.797h7.761l1.199-7.705l0.396-2.487l-1.141-0.753l-0.765,1.773h-3.442v-5.691h3.753
				l1.174-7.286l0.001-0.005l0.253-1.565h-0.004l0.162-1.021l-1.141-0.754l-0.765,1.774h-0.56l1.77-6.245l-7.177-1.265
				c0,0-1.515,6.038-2.026,7.51h-0.513l-1.913-7.261l-7.178,1.581l1.658,5.68h-1.762l-1.428,8.856h5.349v5.691h-3.921l-1.428,9.172
				h2.229v8.223c0.17,5.061,2.052,7.699,5.64,7.908h11.604L568.411,118.539z"/>
			<path fill="#FFFFFF" d="M504.361,133.121l8.86,1.428c1.164-6.826,1.796-13.393,1.899-19.699l-7.784-0.312
				C506.932,121.521,505.98,127.389,504.361,133.121"/>
			<path fill="#FFFFFF" d="M516.377,115.137c0.607,6.254,0.439,12.037,0.49,17.457l8.508-0.859
				c-0.507-6.721-1.216-12.455-2.127-17.197L516.377,115.137z"/>
			<polygon fill="#D82617" points="427.047,97.373 414.628,93.398 427.523,51.014 387.787,105.402 403.091,109.338 388.465,153.336 
							"/>
		</g>
	</g>
	<g>
		<g>
			<path fill="#EC1B23" d="M768.912,128.987c3.442,18.73,20.508,45.51,33.141,40.877c7.42-2.721,7.42,5.44,17.391,5.124
				c5.916-0.186,6.764-1.693,10.145-3.804c15.679,11.849,43.694-16.586,56.694-44.876c24.521-53.375-29.919-74.963-54.224-60.379
				c-5.354-8.794-32.944-18.364-53.971-1.937c0,0,8.527,29.167-5.294,46.34C774.47,121.226,768.912,128.987,768.912,128.987
				L768.912,128.987z"/>
			<path fill="#FFFFFF" d="M782.073,66.668c26.378,8.027,21.379,50.318-8.412,59.641c2.675-4.969,3.172-9.636,2.291-14.91
				C784.364,102.604,786.275,80.048,782.073,66.668L782.073,66.668z"/>
			<path fill="#70BE52" d="M846.947,56.938c11.289,0.78,21.918,2.761,21.918,2.761l22.168,5.74c0,0-5.057-8.381-14.639-13.688
				C866.877,46.484,848.682,55.027,846.947,56.938L846.947,56.938z"/>
			<path fill="#70BE52" d="M769.475,41.486c24.087,5.35,50.457,11.486,50.457,11.486l25.629-2.168c0,0-14.898-17.094-30.912-23.691
				C804.461,22.914,782.093,30.78,769.475,41.486L769.475,41.486z"/>
			<polygon fill="#70BE52" points="849.992,20.503 860.188,29.643 834.877,82.027 831.362,80.622 849.992,20.503 			"/>
			<polygon fill="#FFFFFF" points="821.065,74.391 836,84.745 844.386,75.92 835.574,80.103 821.065,74.391 			"/>
		</g>
		<g>
			<g>
				<path fill-rule="evenodd" clip-rule="evenodd" fill="#FFFFFF" d="M1274.1,92.238l1.539-0.493l0.736-1.271l-10.238-8.89
					l-2.246,3.223l-16.488-0.056l0.011-20.103l11.496,0.003l0.003,6.195l-8.441,0.019c0,0,1.061,4.322,2.667,10.398
					c8.235-0.156,13.731,0.274,16.222-4.437c2.488-1.183,2.127-17.938,2.127-17.938l2.045-2.676l-11.338-5.637l-2.353,3.511h-24.817
					v81.047l12.449-0.024l-0.06-6.478l6.04,7.876l6.309-12.089l8.354,10.944l7.832-10.157c0,0-10.461-12.159-10.432-12.217
					C1271.463,100.414,1274.1,92.238,1274.1,92.238z M1247.574,122.348l-0.016-14.449l3.681,6.716L1247.574,122.348z
					 M1256.853,102.783l-4.054-6.756h6.829L1256.853,102.783z"/>
				<path fill-rule="evenodd" clip-rule="evenodd" fill="#FFFFFF" d="M1231.066,87.212l3.818-12.346l-3.255-1.085l-1.151,1.933
					l-10.371-0.002v-4.67l9.128-0.003l3.839-12.396l-2.133-0.656l-1.142,1.873l-9.374,0.081l0.007-4.751l1.415-0.92l0.422-1.795
					l-15.383,0.013l0.01,7.457h-11.842l-3.039,11.095l14.895,0.003l-0.014,4.672h-12.365l-3.326,11.502h7.257l1.214,7.194
					l-4.957,0.004l-3.149,10.918l15.313,0.004v4.344h-12.275l-3.261,11.506h15.692l0.013,14.008l13.198,0.004l-0.05-14.018
					l10.856,0.006l3.618-12.37l-3.187-1.091l-1.01,1.952h-10.498v-4.257h9.53l3.629-12.168l-2.219-0.745l-0.899,1.907l-4.238-0.004
					l2.078-7.19L1231.066,87.212z M1214.521,93.853l-3.678,0.071l-0.646-6.704h6.175L1214.521,93.853z"/>
			</g>
			<path fill-rule="evenodd" clip-rule="evenodd" fill="#FFFFFF" d="M1066.658,107.403h24.246l3.494-13.694l-3.514-1.203
				l-1.499,2.449l-30.794,0.049l0.014-3.467l26.534-0.001V60.864l4.153-5.837l-13.51-6.551l-2.564,3.585l-57.452,0.047v39.428
				l28.187,0.001l-0.043,3.467h-32.141l-1.498,12.399h24.87c0,0-17.093,12.443-24.989,17.282c0,0,7.654,9.754,7.717,9.715
				c12.628-7.979,26.062-19.489,26.062-19.489l0.01,20.276h14.65l0.014-20.092c0,0,11.264,10.919,26.144,17.834
				c0,0,7.651-10.426,9.911-11.275C1081.725,116.673,1066.658,107.403,1066.658,107.403z M1058.355,63.275h13.148v3.161h-13.148
				V63.275z M1043.983,66.405h-11.239l-3.146,11.062h14.386v3.114h-14.815V63.294h14.815V66.405z M1058.323,80.615v-3.15h13.211
				v3.15H1058.323z"/>
			<path fill-rule="evenodd" clip-rule="evenodd" fill="#FFFFFF" d="M1166.138,49.113l-2.188,2.775h-55.432v83.148l14.338-0.069
				l-0.036-5.631l40.798-0.065v5.654h14.801l0.043-73.846l3.635-5.841L1166.138,49.113z M1163.617,83.271l-33.48-0.021
				l-4.963,14.267l38.414-0.043v17.268l-40.732,0.046V66.62l40.762,0.053V83.271z"/>
			<g>
				<path fill-rule="evenodd" clip-rule="evenodd" fill="#FFFFFF" d="M936.035,105.478l-7.51-6.231c0,0-6.305,13.017-8.55,17.589
					c-0.04,0.075,7.675,6.598,7.677,6.591C932.43,114.457,936.035,105.478,936.035,105.478z"/>
				<path fill-rule="evenodd" clip-rule="evenodd" fill="#FFFFFF" d="M1003.207,69.038l-1.795-0.763l-0.957,2.004l-18.365,0.003
					v-4.069l17.949-0.003l3.273-11.909l-1.9-0.808l-0.957,2.047l-18.375-0.001l-0.01-2.58l1.099-0.347l0.345-1.339l-13.205,0.02
					l0.01,4.246h-14.757v-2.623l1.122-0.24l0.324-1.383h-13.227l-0.014,4.246l-21.364,0.001l-1.93,10.67l23.337,0.003l-0.007,3.216
					l-4.958-0.009l-0.02,18.595l-3.028-0.019l-0.009-12.521l1.175-0.433l0.341-1.339l-12.68,0.003l0.01,14.303h-2.772l-2.405,10.195
					h16.662v19.441l-14.828,12.114l7.014,9.888c0,0,17.894-10.498,31.998-33.02l1.627,0.211l0.164-1.617v-0.646l-10.356-4.899
					l-4.285,8.056v-9.525h10.69l2.619-10.233l-10.298-0.007l0.022-3.479l6.26,0.009l2.328-9.07h-8.653v-4.184h5.248l-0.097-5.03
					h14.746v4.069l-8.219,0.01l-2.677,10.663h16.542l-1.237,3.547l-12.634,0.099v19.977l0.062,0.029l-0.062,0.616v17.266
					l5.275,0.004l-13.448,8.838l7.989,7.545c0,0,4.787-3.051,8.396-5.566c3.709-2.597,8.25-6.231,8.25-6.231l-3.139-4.585h10.501
					l-4.308,5.195c0,0,2.968,2.468,7.113,5.818c4.521,3.669,6.356,4.76,6.356,4.76l8.016-8.41l-10.447-7.363l7.271-0.004
					l0.016-31.277l2.879-2.527l-7.789-7.732h-0.221l-2.906,3.557l-4.999-0.006l1.122-3.551h6.783l0.096-0.121l0.125,0.121h5.301
					L1003.207,69.038z M988.194,114.374h-14.304v-2.942h14.304V114.374z M988.194,104.604h-14.304v-2.938h14.304V104.604z
					 M988.194,91.898v2.938h-14.304v-2.938H988.194z"/>
			</g>
		</g>
		<g>
			<path fill-rule="evenodd" clip-rule="evenodd" fill="#FFFFFF" d="M934.328,167.535h5.906l0.701,2.329h8.252l-7.639-18.746h-8.595
				l-7.41,18.746h8.21L934.328,167.535L934.328,167.535z M935.779,163.092l1.053-3.627c0.129-0.442,0.193-0.925,0.357-2.099h0.285
				c0.093,0.891,0.131,1.006,0.418,2.099l0.996,3.627H935.779L935.779,163.092z"/>
			<path fill-rule="evenodd" clip-rule="evenodd" fill="#FFFFFF" d="M964.098,169.864h7.572v-5.644h4.301
				c4.104,0,6.83-2.536,6.83-6.357c0-1.203-0.416-2.533-1.088-3.562c-1.376-2.027-4.01-3.183-7.348-3.183h-10.268V169.864
				L964.098,169.864z M971.67,159.498v-3.237h1.439c1.322,0,2.123,0.591,2.123,1.548c0,1.038-0.867,1.689-2.221,1.689H971.67
				L971.67,159.498z"/>
			<path fill-rule="evenodd" clip-rule="evenodd" fill="#FFFFFF" d="M997.713,169.864h7.57v-5.644h4.301
				c4.105,0,6.838-2.536,6.838-6.357c0-1.203-0.423-2.533-1.096-3.562c-1.374-2.027-4.01-3.183-7.345-3.183h-10.269V169.864
				L997.713,169.864z M1005.283,159.498v-3.237h1.441c1.314,0,2.119,0.591,2.119,1.548c0,1.038-0.862,1.689-2.211,1.689H1005.283
				L1005.283,159.498z"/>
			<polygon fill-rule="evenodd" clip-rule="evenodd" fill="#FFFFFF" points="1031.326,169.864 1045.67,169.864 1045.67,163.821 
				1039.128,163.821 1039.128,151.118 1031.326,151.118 1031.326,169.864 			"/>
			<polygon fill-rule="evenodd" clip-rule="evenodd" fill="#FFFFFF" points="1060.581,169.864 1075.246,169.864 1075.246,164.726 
				1068.383,164.726 1068.383,162.928 1074.406,162.928 1074.406,158.003 1068.383,158.003 1068.383,156.261 1075.023,156.261 
				1075.023,151.118 1060.581,151.118 1060.581,169.864 			"/>
			<path fill-rule="evenodd" clip-rule="evenodd" fill="#FFFFFF" d="M1125.287,169.864h10.206c2.532,0,4.97-0.758,6.925-2.159
				c2.346-1.687,3.467-3.906,3.467-6.945c0-6.099-4.523-9.642-12.354-9.642h-8.243V169.864L1125.287,169.864z M1133.022,164.135
				v-7.283h1.089c2.408,0,4.012,1.487,4.012,3.685c0,2.111-1.667,3.599-4.012,3.599H1133.022L1133.022,164.135z"/>
			<path fill-rule="evenodd" clip-rule="evenodd" fill="#FFFFFF" d="M1169.588,167.535h5.9l0.701,2.329h8.251l-7.638-18.746h-8.595
				l-7.412,18.746h8.212L1169.588,167.535L1169.588,167.535z M1171.035,163.092l1.057-3.627c0.121-0.442,0.187-0.925,0.352-2.099
				h0.292c0.097,0.891,0.124,1.006,0.409,2.099l0.998,3.627H1171.035L1171.035,163.092z"/>
			<polygon fill-rule="evenodd" clip-rule="evenodd" fill="#FFFFFF" points="1199.351,169.864 1207.148,169.864 1207.148,151.118 
				1199.351,151.118 1199.351,169.864 			"/>
			<polygon fill-rule="evenodd" clip-rule="evenodd" fill="#FFFFFF" points="1224.207,169.864 1238.546,169.864 1238.546,163.821 
				1232.002,163.821 1232.002,151.118 1224.207,151.118 1224.207,169.864 			"/>
			<path fill-rule="evenodd" clip-rule="evenodd" fill="#FFFFFF" d="M1251.312,151.118l7.446,10.682v8.064h7.663V161.8l7.287-10.682
				h-8.73l-1.67,3.428c-0.351,0.673-0.38,0.814-0.573,1.491h-0.228c-0.289-0.9-0.416-1.178-0.574-1.491l-1.83-3.428H1251.312
				L1251.312,151.118z"/>
		</g>
	</g>
	<g>
		<path fill="#FFFFFF" d="M721.874,134.868c3.127,3.047,3.191,8.051,0.145,11.177l0,0c-3.047,3.128-8.052,3.193-11.179,0.147
			l-69.094-67.329c-3.125-3.045-3.192-8.051-0.144-11.178l0,0c3.046-3.126,8.052-3.189,11.178-0.146L721.874,134.868z"/>
		<path fill="#FFFFFF" d="M641.748,134.868c-3.127,3.047-3.192,8.051-0.145,11.177l0,0c3.047,3.128,8.052,3.193,11.179,0.147
			l69.093-67.329c3.125-3.045,3.191-8.051,0.144-11.178l0,0c-3.046-3.126-8.052-3.189-11.179-0.146L641.748,134.868z"/>
	</g>
	<g>
		<path fill="#FFFFFF" d="M1411.942,134.868c3.127,3.047,3.191,8.051,0.146,11.177l0,0c-3.048,3.128-8.053,3.193-11.18,0.147
			l-69.094-67.329c-3.125-3.045-3.191-8.051-0.144-11.178l0,0c3.046-3.126,8.052-3.189,11.178-0.146L1411.942,134.868z"/>
		<path fill="#FFFFFF" d="M1331.816,134.868c-3.128,3.047-3.192,8.051-0.146,11.177l0,0c3.048,3.128,8.052,3.193,11.179,0.147
			l69.094-67.329c3.125-3.045,3.191-8.051,0.145-11.178l0,0c-3.047-3.126-8.053-3.189-11.18-0.146L1331.816,134.868z"/>
	</g>
	<g>
		<rect x="1467.192" y="47.386" fill="#142280" width="703.919" height="118.38"/>
		<rect x="1467.192" y="47.386" fill="#FFFFFF" width="703.919" height="11.838"/>
		<rect x="1467.192" y="153.929" fill="#FFFFFF" width="703.919" height="11.837"/>
		<rect x="1478.623" y="59.224" fill="#142280" width="132.578" height="94.705"/>
		<path fill="#E60020" d="M1505.666,120.784h-27.043V92.368h51.367l-21.653,31.963L1505.666,120.784z M1584.145,120.784h27.057
			V92.368h-51.365l21.658,31.963L1584.145,120.784z"/>
		<path fill="#FFFFFF" d="M1559.703,99.339l-14.791,19.878l-14.791-19.878l-7.876,6.26c0,0,15.606,20.714,18.484,24.207
			c1.194,1.449,2.615,2.223,4.183,2.223c1.554,0,2.975-0.773,4.183-2.223c2.878-3.493,18.471-24.207,18.471-24.207L1559.703,99.339z
			"/>
		<path fill="#FFFFFF" d="M1544.927,84.099l31.543,47.93l7.295-8.056l-34.773-51.395c-0.938-1.332-2.457-2.105-4.064-2.105
			c-1.65,0-3.169,0.773-4.079,2.105l-34.788,51.395l7.296,8.056L1544.927,84.099z"/>
		<path fill="#FFFFFF" d="M1544.912,68.692c-26.152,0-47.35,16.952-47.35,37.894c0,20.914,21.197,37.872,47.35,37.872
			s47.343-16.958,47.343-37.872C1592.255,85.645,1571.064,68.692,1544.912,68.692 M1544.912,139.729
			c-22.978,0-41.683-14.866-41.683-33.144c0-18.291,18.705-33.158,41.683-33.158s41.668,14.867,41.668,33.158
			C1586.58,124.863,1567.89,139.729,1544.912,139.729"/>
		<rect x="1611.201" y="53.314" fill="#FFFFFF" width="11.838" height="106.529"/>
		<rect x="1466.786" y="53.314" fill="#FFFFFF" width="11.837" height="106.529"/>
		<rect x="2159.26" y="53.314" fill="#FFFFFF" width="11.852" height="106.529"/>
		<path fill="#FFFFFF" d="M1726.137,96.661c-0.372-0.919-1.166-1.547-2.36-1.878c-6.226-2.318-11.526-4.652-15.723-6.923
			c-4.438-2.63-8.628-5.653-12.459-8.925c-1.152-1.008-2.603-1.519-4.3-1.519c-1.65,0-3.161,0.565-4.5,1.663
			c-7.179,6.633-16.559,12.087-27.872,16.214c-1.076,0.366-1.828,1.027-2.264,1.974l-0.006,0.042
			c-0.305,0.87-0.249,1.752,0.158,2.63c0.338,1.057,1.125,1.801,2.167,2.05c0.318,0.117,0.663,0.165,1.042,0.165
			c1.347,0,3.507-0.676,6.551-2.042c-0.007,0.067-0.007,0.13-0.021,0.2v0.048c0,0.897,0.358,1.727,1.042,2.401
			c0.579,0.504,1.359,0.76,2.478,0.828h18.057v9.291h-18.346c-0.912,0-1.74,0.263-2.409,0.787l-0.187,0.165
			c-0.539,0.608-0.842,1.319-0.925,2.188v0.034c0,0.904,0.358,1.727,1.056,2.401c0.566,0.512,1.345,0.774,2.465,0.844h18.346v10.021
			h-26.546c-0.932,0-1.746,0.263-2.437,0.801l-0.117,0.11l-0.049,0.048c-0.531,0.6-0.835,1.305-0.919,2.168v0.048
			c0,0.911,0.354,1.726,1.051,2.408c0.593,0.511,1.366,0.767,2.471,0.822h59.725c0.986,0,1.809-0.312,2.492-0.98l0.021-0.027
			c0.538-0.601,0.842-1.312,0.918-2.182v-0.041c0-0.932-0.346-1.732-1.043-2.402c-0.573-0.51-1.388-0.772-2.388-0.772h-26.222
			v-10.021h18.567c0.986,0,1.822-0.332,2.505-0.994l0.028-0.028c0.546-0.601,0.843-1.318,0.91-2.181v-0.042
			c0-0.925-0.331-1.719-1.042-2.415c-0.593-0.497-1.4-0.76-2.401-0.76h-18.567v-9.291h18.567c0.986,0,1.835-0.331,2.505-0.993
			l0.028-0.027c0.546-0.601,0.843-1.312,0.91-2.168v-0.041c0-0.138,0-0.275-0.02-0.421c3.823,1.622,5.287,1.856,6.144,1.856
			c0.187,0,0.386-0.027,0.613-0.083l0.187-0.034c0.835-0.304,1.498-0.953,2.037-1.995
			C1726.462,98.703,1726.504,97.683,1726.137,96.661 M1711.305,97.178h-38.818c1.422-0.752,2.968-1.58,4.687-2.574
			c5.433-3.383,9.698-6.515,12.679-9.318c0.491-0.476,0.968-0.704,1.45-0.704h0.097c0.068,0,0.4,0.021,1.077,0.553
			C1696.589,88.806,1702.911,92.864,1711.305,97.178"/>
		<path fill="#FFFFFF" d="M1966.115,77.272l-0.133-0.104c-0.621-0.415-1.353-0.649-2.152-0.718l-0.11-0.015l-0.104,0.015
			c-0.924,0.068-1.696,0.372-2.291,0.884l-0.138,0.124c-0.545,0.614-0.85,1.394-0.918,2.374v45.68c0,0.938-0.09,1.669-0.311,2.146
			c-0.2,0.463-0.539,1.043-0.988,1.153c-2.194,0.579-5.68,0.296-10.249-0.801l-0.048-0.014c-2.051-0.358-3.583,0.345-4.349,1.98
			l-0.062,0.173c-0.234,0.842-0.145,1.671,0.248,2.437l0.084,0.158c0.489,0.677,1.242,1.16,2.312,1.463l0.041,0.028
			c4.078,0.87,7.261,1.325,9.47,1.387c4.265,0,7.33-1.18,9.152-3.479c1.063-1.518,1.621-3.623,1.677-6.446V79.875
			C1967.246,78.818,1966.854,77.9,1966.115,77.272"/>
		<path fill="#FFFFFF" d="M1945.891,122.758c0.629,0.414,1.36,0.656,2.161,0.704l0.103,0.007l0.091-0.007
			c0.918-0.048,1.697-0.352,2.318-0.891c0.725-0.628,1.119-1.497,1.119-2.457V82.318c0-0.926-0.388-1.754-1.119-2.402l-0.138-0.11
			c-0.663-0.422-1.38-0.663-2.223-0.712h-0.034c-0.953,0-1.753,0.257-2.472,0.822c-0.662,0.572-1,1.366-1,2.402v37.796
			c0,0.98,0.352,1.829,1,2.457L1945.891,122.758z"/>
		<path fill="#FFFFFF" d="M1938.54,92.878h-12.321v-8c11.7-1.069,13.032-2.167,13.48-3.361c0.283-0.676,0.366-1.4,0.221-2.201
			l-0.027-0.139c-0.248-0.863-0.814-1.539-1.629-1.96l-0.15-0.062c-0.45-0.173-0.926-0.262-1.484-0.262
			c-0.249,0-0.532,0.027-0.836,0.067l-0.097,0.014c-5.874,1.319-15.398,2.271-28.341,2.838c-0.993,0-1.829,0.338-2.525,1.021
			c-0.546,0.602-0.842,1.312-0.925,2.182v0.049c0,0.925,0.365,1.746,1.056,2.347l0.117,0.082c0.642,0.456,1.408,0.691,2.347,0.746
			h0.021h0.027c3.293-0.118,7.247-0.345,11.769-0.69v7.33h-13.521c-0.925,0-1.731,0.27-2.395,0.78l-0.2,0.187
			c-0.532,0.6-0.85,1.312-0.932,2.167v0.056c0,0.91,0.365,1.726,1.055,2.388c0.573,0.51,1.374,0.787,2.472,0.855h11.755
			c-3.176,5.694-7.22,11.113-12.044,16.068c-1.934,1.685-2.79,3.029-2.79,4.314v0.062c0.09,0.896,0.553,1.67,1.375,2.306l0.014,0.02
			c0.696,0.442,1.401,0.677,2.125,0.677c0.159,0,0.332,0,0.422-0.033c1.787-0.194,4.831-1.947,12.665-13.812v24.44
			c0,0.994,0.338,1.843,0.994,2.472l0.2,0.158c0.614,0.421,1.346,0.669,2.167,0.731h0.173h0.013
			c0.939-0.062,1.727-0.372,2.307-0.904c0.731-0.614,1.124-1.482,1.124-2.457v-26.407c3.486,3.719,6.489,7.095,8.939,10.035
			c0.648,0.745,1.366,1.215,2.119,1.415l0.221,0.034c0.766,0.056,1.566-0.138,2.395-0.62c0.815-0.505,1.34-1.223,1.512-2.126
			l0.027-0.167c0.041-0.896,0.104-1.827-14.107-16.206h11.216c0.986,0,1.837-0.346,2.506-1.008l0.027-0.021
			c0.531-0.6,0.834-1.312,0.911-2.166l0.014-0.049c0-0.911-0.359-1.74-1.056-2.423C1940.349,93.147,1939.541,92.878,1938.54,92.878"
			/>
		<path fill="#FFFFFF" d="M2045.436,91.746c-0.049-1.704-0.602-3.202-1.664-4.411l-0.007-0.02c-1.173-1.174-2.781-1.754-4.811-1.754
			h-21.369v-6.398c0-1.057-0.464-1.968-1.298-2.616l-0.035-0.027c-0.647-0.428-1.401-0.663-2.34-0.717
			c-0.917,0-1.773,0.289-2.539,0.883c-0.629,0.539-0.974,1.38-1.057,2.478v6.398h-20.879c-2.064,0-3.79,0.545-5.115,1.636
			l-0.021,0.021c-1.173,1.132-1.78,2.671-1.856,4.568l0.014,23.944c-0.055,1.706,0.58,3.141,1.892,4.301
			c1.159,0.993,2.802,1.531,5.087,1.614h20.879v12.23c0,1.063,0.387,1.947,1.111,2.582c0.69,0.593,1.519,0.904,2.52,0.904h0.048
			h0.021c0.89-0.062,1.67-0.353,2.373-0.904c0.78-0.677,1.195-1.56,1.195-2.582v-12.23h21.369c1.794,0,3.361-0.538,4.659-1.614
			c1.221-1.05,1.828-2.484,1.828-4.245L2045.436,91.746z M2038.471,92.92v21.023c0,0.394-0.097,0.649-0.331,0.87
			c-0.305,0.291-0.753,0.428-1.381,0.428h-19.174V91.975h19.223l0.214-0.008c0.565,0,1,0.089,1.221,0.275
			C2038.36,92.333,2038.442,92.603,2038.471,92.92 M1989.431,92.796c-0.028-0.159,0-0.38,0.103-0.519
			c0.229-0.173,0.607-0.29,1.146-0.303h19.637v23.267h-19.665c-0.565,0-0.89-0.124-0.993-0.221c-0.125-0.124-0.27-0.38-0.228-1.077
			V92.837V92.796z"/>
		<path fill="#FFFFFF" d="M2096.249,114.026c0.104,1.394,0.808,2.134,1.194,2.423c0.58,0.511,1.395,0.767,2.423,0.767h0.062h0.006
			c0.967-0.069,1.774-0.414,2.479-1.104l0.027-0.021c0.58-0.67,0.855-1.511,0.787-2.478c-0.642-13.225-2.699-24.876-6.171-34.636
			c-0.311-0.843-0.89-1.531-1.732-1.994c-0.766-0.407-1.698-0.483-2.636-0.229c-0.96,0.264-1.678,0.753-2.065,1.422
			c-0.324,0.477-0.751,1.437-0.233,2.795C2093.771,90.352,2095.737,101.465,2096.249,114.026"/>
		<path fill="#FFFFFF" d="M2069.324,87.163c-0.587-0.677-1.457-1.008-2.555-1.008h-0.049c-0.883,0.042-1.648,0.331-2.249,0.821
			c-0.463,0.353-1.208,1.139-1.111,2.63c0.29,10.713-1.554,22.868-5.46,36.141c-0.373,1.297-0.027,2.202,0.366,2.727
			c0.421,0.738,1.159,1.214,2.229,1.421l0.173,0.021h0.166c0.076,0.015,0.131,0.015,0.207,0.015c0.662,0,1.298-0.11,1.898-0.345
			l0.214-0.118l0.056-0.021c0.683-0.454,1.18-1.146,1.483-2.076c3.989-13.957,5.881-26.719,5.632-37.983
			C2070.256,88.558,2069.917,87.812,2069.324,87.163"/>
		<path fill="#FFFFFF" d="M2116.156,114.081l-0.256-0.206c-0.643-0.442-1.367-0.684-2.271-0.745c-0.952,0-1.767,0.303-2.402,0.91
			c-0.579,0.456-1.18,1.021-1.18,10.43c0,2.229-0.435,3.7-1.222,4.3c-0.214,0.056-0.448,0.139-0.669,0.27
			c-2.126,0.718-5.612,1.098-10.368,1.098c-3.141,0-6.86-0.159-11.022-0.498c-0.456-0.04-0.719-0.083-0.986-0.11
			c-1.022-0.13-1.774-0.414-2.271-0.827c-0.421-0.359-0.614-1.062-0.58-2.071v-42.2c0-1.069-0.394-1.974-1.125-2.595l-0.124-0.11
			c-0.643-0.414-1.374-0.67-2.161-0.732l-0.103-0.006l-0.09,0.006c-0.932,0.062-1.705,0.373-2.334,0.918l-0.117,0.104
			c-0.545,0.594-0.842,1.381-0.918,2.367v42.608c0,3.279,1.153,5.812,3.473,7.476c1.339,0.89,4.659,1.911,18.436,2.077h0.621
			c5.972,0,10.623-0.58,13.867-1.739c1.643-0.629,2.919-1.719,3.789-3.307c0.579-1.076,0.891-2.457,0.932-4.127
			c-0.041-1.484-0.041-5.115,0-10.802C2117.073,115.587,2116.77,114.772,2116.156,114.081"/>
		<path fill="#FFFFFF" d="M2126.972,125.001c-1.464-14.916-4.507-27.939-9.057-38.707c-0.303-0.87-0.869-1.532-1.704-2.002
			l-0.222-0.097c-0.738-0.263-1.421-0.304-2.429-0.083c-1.001,0.262-1.732,0.827-2.195,1.684c-0.324,0.719-0.345,1.574-0.068,2.574
			l0.068,0.16c4.445,10.421,7.352,22.921,8.663,37.106c0.068,1.062,0.559,1.946,1.38,2.512c0.613,0.414,1.318,0.614,2.111,0.614
			c0.104,0,0.208,0,0.312-0.014l0.187-0.021c0.89-0.193,1.636-0.545,2.188-1.118l0.131-0.138
			C2126.847,126.823,2127.054,126.002,2126.972,125.001"/>
		<path fill="#FFFFFF" d="M1776.661,135.589h-9.331c-1.739,0-3.154-1.181-3.154-2.911c0-1.748,1.415-2.928,3.154-2.928h7.751
			c1.871,0,2.802-0.698,2.802-2.741v-16.171c0-1.739,1.401-3.154,3.162-3.154c1.732,0,3.154,1.415,3.154,3.154v17.228
			C1784.199,132.221,1780.816,135.589,1776.661,135.589"/>
		<path fill="#FFFFFF" d="M1748.805,128.17c4.569,0,7.682-2.811,7.91-6.302h-15.724c-1.739,0-3.154,1.408-3.154,3.146
			c0,1.754,1.415,3.155,3.154,3.155H1748.805z"/>
		<polygon fill="#FFFFFF" points="1758.965,98.813 1745.567,98.813 1745.567,92.258 1758.965,92.258 1758.965,98.932 		"/>
		<polygon fill="#FFFFFF" points="1758.965,113.378 1745.567,113.378 1745.567,106.807 1758.965,106.807 1758.965,113.495 		"/>
		<polygon fill="#FFFFFF" points="1748.873,124.05 1742.544,124.05 1742.544,82.084 1748.749,82.084 1748.749,124.05 		"/>
		<path fill="#FFFFFF" d="M1790.936,136.693c-1.753,0-3.154-1.408-3.154-3.155v-22.7c0-1.739,1.401-3.154,3.154-3.154
			c1.74,0,3.155,1.415,3.155,3.154v22.7C1794.091,135.285,1792.676,136.693,1790.936,136.693"/>
		<path fill="#FFFFFF" d="M1756.666,77.928h-15.662c-1.752,0-3.167,1.437-3.167,3.176c0,1.745,1.415,3.16,3.167,3.16h14.088v49.297
			c0,1.752,1.409,3.153,3.162,3.153c1.738,0,3.167-1.401,3.167-3.153V82.69C1761.421,80.054,1759.289,77.928,1756.666,77.928"/>
		<path fill="#FFFFFF" d="M1778.602,119.217h-7.268v-8.379c0-1.739-1.402-3.154-3.155-3.154c-1.739,0-3.168,1.415-3.168,3.154v9.725
			c0,2.623,2.134,4.756,4.756,4.756h8.593c1.732,0,3.389-1.188,3.389-2.934C1781.748,120.652,1780.342,119.217,1778.602,119.217"/>
		<path fill="#FFFFFF" d="M1806.949,120.563v-9.727c0-1.738-1.415-3.153-3.162-3.153c-1.746,0-3.16,1.415-3.16,3.153v8.38h-7.254
			c-1.74,0-3.155,1.436-3.155,3.168c0,1.746,1.415,2.934,3.155,2.934h8.82C1804.83,125.318,1806.949,123.186,1806.949,120.563"/>
		<path fill="#FFFFFF" d="M1781.742,99.656h-7.49l8.711-7.178c0.855-0.712,1.409-1.871,1.036-2.913
			c-0.38-1.035-1.235-1.726-2.34-1.726h-8.124l6.902-5.992c1.257-1.104,1.629-3.03,0.524-4.292c-1.098-1.257-2.892-1.395-4.155-0.29
			l-12.051,10.491c-1.264,1.104-1.389,3.002-0.297,4.267c0.601,0.695,1.436,1.041,2.292,1.041h7.758c0,0-7.026,5.735-8.566,7.075
			c-0.801,0.67-1.242,1.615-1.242,2.546c0,1.685,1.249,3.031,2.919,3.031h14.123c1.67,0,3.022-1.347,3.022-3.031
			C1784.765,101.009,1783.412,99.656,1781.742,99.656"/>
		<path fill="#FFFFFF" d="M1804.615,99.656h-7.488l8.718-7.178c0.849-0.712,1.401-1.871,1.035-2.913
			c-0.387-1.035-1.242-1.726-2.34-1.726h-8.13l6.894-5.992c1.264-1.104,1.622-3.03,0.539-4.292c-1.104-1.257-2.906-1.395-4.155-0.29
			l-12.059,10.491c-1.263,1.104-1.388,3.002-0.289,4.267c0.594,0.695,1.436,1.041,2.285,1.041h7.758c0,0-7.026,5.735-8.58,7.075
			c-0.786,0.67-1.229,1.615-1.229,2.546c0,1.685,1.243,3.031,2.913,3.031h14.128c1.671,0,3.03-1.347,3.03-3.031
			C1807.646,101.009,1806.286,99.656,1804.615,99.656"/>
		<path fill="#FFFFFF" d="M1829.484,98.641c-0.642-0.476-1.395-0.717-2.284-0.717c-0.855,0.034-1.602,0.345-2.202,0.876
			l-0.034,0.014c-0.559,0.608-0.835,1.38-0.835,2.319c-0.428,9.484-1.229,17.056-2.402,22.529c-0.158,0.925,0,1.76,0.511,2.492
			l0.083,0.089c0.518,0.456,1.062,0.677,1.904,0.905l0.104,0.02h0.277c0.724,0,1.421-0.165,2.028-0.504l0.056-0.034
			c1.173-0.883,2.83-4.514,3.72-25.731c0-0.939-0.192-1.587-0.855-2.209L1829.484,98.641z"/>
		<path fill="#FFFFFF" d="M1825.322,82.643c0.574,0.58,1.43,0.877,2.526,0.877h16.358c1.021,0,1.857-0.318,2.472-0.967
			c0.545-0.566,0.854-1.298,0.911-2.126v-0.021c0-0.931-0.324-1.67-0.946-2.229c-0.545-0.51-1.366-0.759-2.437-0.82h-16.358
			c-1.021,0-1.856,0.303-2.52,0.883l-0.026,0.021c-0.553,0.593-0.864,1.297-0.905,2.146
			C1824.397,81.331,1824.708,82.084,1825.322,82.643"/>
		<path fill="#FFFFFF" d="M1846.478,100.871c-0.068-0.869-0.399-1.581-1.042-2.16c-0.512-0.408-1.173-0.614-1.98-0.614
			c-0.084,0-0.166,0-0.27,0.027c-0.704,0.027-1.25,0.331-1.863,0.876c-0.531,0.511-0.779,1.229-0.719,2.112l0.856,18.871
			c0.049,0.884,0.346,1.601,0.905,2.146l0.096,0.069c0.552,0.331,1.118,0.51,1.967,0.51c0.884,0,1.588-0.255,2.084-0.758
			c0.58-0.504,0.856-1.257,0.815-2.195L1846.478,100.871z"/>
		<path fill="#FFFFFF" d="M1848.921,94.355c0.573-0.58,0.863-1.291,0.932-2.111v-0.049c0-0.918-0.323-1.54-0.945-2.099
			c-0.565-0.496-1.374-0.753-2.449-0.808h-21.149c-1.008,0-1.856,0.296-2.505,0.862l-0.042,0.035
			c-0.56,0.579-0.856,1.159-0.904,2.009c0,0.938,0.311,1.677,0.925,2.229c0.56,0.602,1.415,0.884,2.526,0.884h7.31v37.266
			c0,1.015,0.207,1.835,0.876,2.471l0.035,0.048c0.642,0.464,1.146,0.718,2.05,0.773h0.014h0.021
			c1.021-0.056,1.56-0.346,2.091-0.869c0.731-0.635,0.96-1.458,0.96-2.423V95.308h7.793
			C1847.486,95.308,1848.314,95.004,1848.921,94.355"/>
		<path fill="#FFFFFF" d="M1880.043,85.796h-20.982c-1.732,0-3.237,0.553-4.348,1.623c-1.291,1.028-1.927,2.491-1.871,4.196v4.466
			c-0.056,1.518,0.421,2.87,1.422,4.045c0.994,1.158,2.588,1.78,4.797,1.828h20.783c1.752,0,3.257-0.552,4.514-1.677
			c1.11-1.118,1.705-2.374,1.773-3.989V91.56c-0.068-1.621-0.663-3.029-1.773-4.141
			C1883.268,86.342,1881.817,85.796,1880.043,85.796 M1880.168,95.197c-0.014,0.338-0.09,0.594-0.222,0.746
			c-0.214,0.151-0.538,0.248-0.945,0.275h-19.374c-0.38,0-0.559-0.041-0.629-0.069c-0.075-0.138-0.172-0.414-0.192-0.855v-3.203
			c0-0.221,0.034-0.317,0.068-0.345l0.166-0.18c0.007,0,0.124-0.041,0.366-0.041l19.616,0.021c0.607,0,0.896,0.104,0.973,0.152
			c0.173,0.199,0.173,0.325,0.173,0.393V95.197z"/>
		<path fill="#FFFFFF" d="M1852.786,83.595h32.661c0.961,0,1.781-0.339,2.43-1.008l0.028-0.014c0.518-0.628,0.808-1.194,0.884-2.028
			v-0.057c0-0.903-0.332-1.704-1.016-2.401c-0.579-0.518-1.365-0.78-2.326-0.78h-32.661c-0.903,0-1.69,0.263-2.34,0.78l-0.186,0.187
			c-0.539,0.6-0.814,1.325-0.891,2.188v0.027c0,0.904,0.345,1.595,1.008,2.271C1850.943,83.256,1851.696,83.52,1852.786,83.595"/>
		<path fill="#FFFFFF" d="M1889.141,110.313c-0.062-1.698-0.614-3.189-1.595-4.376l-0.034-0.049
			c-1.153-1.158-2.713-1.753-4.659-1.753h-27.456c-1.961,0-3.535,0.595-4.674,1.753l-0.027,0.049
			c-0.994,1.187-1.525,2.678-1.58,4.417v17.828c0,1.774,0.586,3.183,1.767,4.252c1.256,1.084,2.774,1.622,4.515,1.622h27.456
			c1.726,0,3.251-0.538,4.514-1.643c1.174-1.049,1.774-2.457,1.774-4.231V110.313z M1871.92,116.284v-6.282h9.524h0.2
			c0.531,0,0.96,0.104,1.166,0.271c0.098,0.082,0.201,0.304,0.222,0.683v5.329H1871.92z M1883.032,121.895v4.998
			c0,0.387-0.09,0.648-0.338,0.896c-0.276,0.249-0.69,0.4-1.298,0.4h-9.477v-6.295H1883.032z M1865.956,110.002v6.282h-10.485
			v-5.329c0.028-0.379,0.132-0.601,0.201-0.669c0.221-0.181,0.662-0.284,1.18-0.284H1865.956z M1865.956,121.895v6.295h-8.849
			c-0.594,0-1.016-0.151-1.29-0.4c-0.249-0.248-0.347-0.51-0.347-0.896v-4.998H1865.956z"/>
		<path fill="#142280" d="M2171.111,165.766h-703.919V47.386h703.919V165.766z M2175.18,43.316h-4.068h-703.919h-4.067v4.069v118.38
			v4.068h4.067h703.919h4.068v-4.068V47.386V43.316z"/>
	</g>
</g>
</svg>
